<svg width="126" height="126" viewBox="0 0 126 126" xmlns="http://www.w3.org/2000/svg"><title>Layer_2</title><desc>Created with Sketch.</desc><path d="M52.254 57.531l16.688-5.59 5.399 16.119-16.688 5.59-5.399-16.119zm0 0l16.688-5.59 5.399 16.119-16.688 5.59-5.399-16.119zm68.346-12.031c-12.9-43-31.5-53-74.5-40.1-43 12.9-53 31.5-40.1 74.5 12.9 43 31.5 53 74.5 40.1 43-12.9 53-31.5 40.1-74.5zm-21.7 27.9l-8.1 2.7 2.8 8.4c1.1 3.4-.7 7.1-4.1 8.2-.7.2-1.5.4-2.2.3-2.6-.1-5.1-1.8-6-4.4l-2.8-8.4-16.7 5.6 2.8 8.4c1.1 3.4-.7 7.1-4.1 8.2-.7.2-1.5.4-2.2.3-2.6-.1-5.1-1.8-6-4.4l-2.8-8.4-8.1 2.7c-.7.2-1.5.4-2.2.3-2.6-.1-5.1-1.8-6-4.4-1.1-3.4.7-7.1 4.1-8.2l8.1-2.7-5.4-16.1-8.1 2.7c-.7.2-1.5.4-2.2.3-2.6-.1-5.1-1.8-6-4.4-1.1-3.4.7-7.1 4.1-8.2l8.1-2.7-2.8-8.4c-1.1-3.4.7-7.1 4.1-8.2 3.4-1.1 7.1.7 8.2 4.1l2.8 8.4 16.7-5.6-2.8-8.4c-1.1-3.4.7-7.1 4.1-8.2 3.4-1.1 7.1.7 8.2 4.1l2.8 8.4 8.1-2.7c3.4-1.1 7.1.7 8.2 4.1 1.1 3.4-.7 7.1-4.1 8.2l-8.1 2.7 5.4 16.1 8.1-2.7c3.4-1.1 7.1.7 8.2 4.1 1.1 3.4-.7 7.1-4.1 8.2z" fill="#fff"/></svg>